<?xml version="1.0" encoding="UTF-8" standalone="no"?>
<!-- Created with Inkscape (http://www.inkscape.org/) -->

<svg
   width="300mm"
   height="300mm"
   viewBox="0 0 300 300"
   version="1.1"
   id="svg1"
   inkscape:version="1.4 (e7c3feb1, 2024-10-09)"
   sodipodi:docname="mechmania.svg"
   xml:space="preserve"
   xmlns:inkscape="http://www.inkscape.org/namespaces/inkscape"
   xmlns:sodipodi="http://sodipodi.sourceforge.net/DTD/sodipodi-0.dtd"
   xmlns="http://www.w3.org/2000/svg"
   xmlns:svg="http://www.w3.org/2000/svg"><sodipodi:namedview
     id="namedview1"
     pagecolor="#ffffff"
     bordercolor="#000000"
     borderopacity="0.25"
     inkscape:showpageshadow="2"
     inkscape:pageopacity="0.0"
     inkscape:pagecheckerboard="0"
     inkscape:deskcolor="#d1d1d1"
     inkscape:document-units="mm"
     inkscape:zoom="0.55307694"
     inkscape:cx="555.07648"
     inkscape:cy="605.70234"
     inkscape:window-width="1200"
     inkscape:window-height="1027"
     inkscape:window-x="2158"
     inkscape:window-y="83"
     inkscape:window-maximized="0"
     inkscape:current-layer="layer1" /><defs
     id="defs1" /><g
     inkscape:label="Layer 1"
     inkscape:groupmode="layer"
     id="layer1"><path
       id="rect1"
       style="fill:#000000;fill-opacity:1;stroke-width:0"
       d="M 47.838424 0 C 43.272422 -1.7274312e-15 38.87681 0.67385261 34.700208 1.8577677 L 34.470247 1.9388997 C 26.127223 4.8945246 20.58652 8.354577 14.593424 14.351062 C 6.7858515 22.163064 2.1694413 31.266584 0.45526937 42.230497 C 0.071945028 44.682204 -0.072962895 82.481195 0.034106445 152.26047 L 0.19326986 256.02003 C 0.31010684 257.49291 0.50158536 258.94121 0.74775798 260.37274 L 1.7611328 263.71879 C 6.2427475 278.51648 15.892441 289.7029 29.517578 295.89512 C 33.028865 297.49091 38.085951 298.89978 43.380815 299.77602 C 43.771347 299.81183 44.172504 299.809 44.565755 299.83545 C 46.119206 299.96117 93.697929 300.0306 152.00261 299.98686 C 240.05025 299.92082 257.38899 300.10954 264.5115 298.34406 C 264.84324 298.25612 265.18107 298.1836 265.50989 298.08878 C 267.5224 297.46632 268.80955 296.65372 271.23099 295.53493 C 285.44804 288.96619 295.89609 275.88853 298.98847 260.79235 C 300.05463 255.58759 300.08619 251.86958 299.93311 147.81527 L 299.77912 43.440759 C 299.55577 40.971903 299.11506 38.574046 298.53372 36.22983 L 298.48721 36.079968 C 293.34513 19.542543 281.84271 7.6521929 265.43858 1.8929077 C 261.22153 0.68387944 256.77729 5.1570966e-17 252.16135 0 L 149.98619 0 L 47.838424 0 z M 47.145443 47.398657 L 149.26582 47.543868 L 251.38672 47.689079 L 251.53245 151.25485 L 251.67818 254.8201 L 149.41155 254.8201 L 47.145443 254.8201 L 47.145443 231.59827 C 47.145443 216.76488 47.351665 208.30698 47.716467 208.18471 C 48.030577 208.07941 54.123203 208.06724 61.255693 208.15784 L 74.223893 208.32217 L 74.223893 218.07093 L 74.223893 227.81969 L 149.26582 227.67396 L 224.30827 227.52823 L 224.30827 151.11119 L 224.30827 74.693632 L 149.26582 74.547904 L 74.223893 74.402177 L 74.223893 84.458927 L 74.223893 94.516195 L 60.684668 94.516195 L 47.145443 94.516195 L 47.145443 70.957426 L 47.145443 47.398657 z M 47.145443 103.13479 L 60.417501 103.13479 L 73.689042 103.13479 L 91.384603 117.88273 C 106.74238 130.68204 113.3871 136.28123 118.338 140.59607 C 119.49581 141.60514 119.58708 141.5898 121.58483 140.05243 C 122.71537 139.18241 130.60537 132.23736 139.11812 124.61875 C 147.63086 117.00017 156.57074 109.04936 158.98513 106.95058 L 163.37504 103.13479 L 177.85736 103.13479 L 192.33916 103.13479 L 192.19189 150.96753 L 192.04461 198.80027 L 178.07337 198.95426 L 164.10161 199.10826 L 164.10161 167.49675 C 164.10161 150.11048 163.95573 135.88525 163.7776 135.88525 C 163.40409 135.88525 150.16501 147.48759 132.79965 163.03346 C 126.18095 168.95867 120.34013 173.80534 119.82008 173.80334 C 119.30007 173.80144 116.15235 171.44021 112.82515 168.55612 C 109.49796 165.67205 99.516616 157.10097 90.64408 149.50974 L 74.512248 135.70748 L 74.223893 167.25387 L 73.936056 198.80027 L 60.541007 198.95478 L 47.145443 199.10878 L 47.145443 151.12204 L 47.145443 103.13479 z " /></g></svg>
